<?xml version="1.0" standalone="no"?>
<!DOCTYPE svg PUBLIC "-//W3C//DTD SVG 20010904//EN"
 "http://www.w3.org/TR/2001/REC-SVG-20010904/DTD/svg10.dtd">
<svg version="1.0" xmlns="http://www.w3.org/2000/svg"
 width="500.000000pt" height="500.000000pt" viewBox="0 0 500.000000 500.000000"
 preserveAspectRatio="xMidYMid meet">

<g transform="translate(0.000000,500.000000) scale(0.100000,-0.100000)"
fill="#000000" stroke="none">
<path d="M2270 4429 c-129 -15 -304 -66 -415 -122 -258 -128 -472 -339 -602
-593 -78 -151 -114 -272 -145 -484 l-12 -85 -73 -69 c-125 -117 -252 -331
-293 -494 -24 -94 -27 -244 -6 -261 11 -9 19 -5 40 19 33 40 33 31 0 -28 -20
-35 -25 -55 -20 -82 8 -54 39 -143 58 -171 16 -24 17 -24 31 -4 46 61 49 63
32 21 -8 -22 -20 -45 -27 -53 -8 -10 -2 -26 25 -66 100 -151 109 -211 52 -334
-33 -72 -42 -103 -29 -103 3 0 38 24 78 54 68 50 133 118 186 194 24 35 70
161 70 191 0 10 -27 39 -60 64 -33 26 -60 54 -60 62 0 23 9 19 57 -26 80 -73
69 -17 -13 72 -68 74 -71 93 -5 35 l24 -21 -7 40 c-4 22 -18 74 -32 115 -13
41 -24 79 -24 85 0 5 -13 19 -29 30 -34 22 -71 82 -71 115 0 20 2 20 38 -10
l37 -30 2 72 c3 110 24 265 37 284 11 14 14 10 25 -32 36 -136 55 -189 101
-282 94 -193 218 -347 377 -469 l73 -56 -44 -47 c-100 -107 -183 -239 -244
-388 -34 -84 -35 -92 -36 -219 -1 -72 3 -135 7 -140 5 -4 20 6 33 22 29 37 31
27 4 -25 -11 -22 -20 -50 -20 -62 0 -32 48 -169 69 -197 l18 -23 22 37 c27 46
37 41 16 -8 -22 -53 -20 -66 31 -167 43 -85 46 -97 42 -154 -3 -42 -14 -84
-37 -134 -19 -40 -31 -75 -28 -79 13 -12 118 70 190 148 90 97 126 163 134
250 l6 65 -41 32 c-22 18 -49 48 -61 67 l-21 36 23 -12 c12 -7 34 -21 50 -31
33 -24 34 -17 6 76 -51 173 -57 187 -104 228 -25 22 -50 49 -56 60 -10 18 -9
19 13 5 13 -8 32 -18 44 -21 20 -6 20 -4 16 108 -3 65 1 143 7 182 15 83 68
304 75 311 3 3 42 -11 88 -30 123 -53 241 -84 421 -112 32 -5 37 -9 31 -23 -4
-9 -9 -32 -12 -49 -3 -27 2 -39 30 -67 26 -26 31 -37 23 -50 -7 -11 -6 -22 2
-34 7 -13 8 -24 1 -36 -7 -12 -7 -26 1 -42 9 -20 7 -25 -9 -34 -27 -15 -53
-67 -46 -95 3 -12 18 -34 33 -49 25 -26 28 -35 28 -102 l0 -74 -70 -21 c-287
-85 -408 -413 -241 -656 70 -104 219 -183 340 -183 165 1 319 98 389 247 30
64 32 74 32 183 0 110 -2 118 -33 179 -69 132 -175 210 -335 245 -22 5 -27 11
-22 26 3 11 2 27 -4 37 -6 12 -6 25 0 36 6 11 6 23 0 35 -8 15 -5 23 19 40 34
25 48 78 30 111 -6 12 -25 30 -41 40 -17 11 -26 22 -21 25 6 4 9 38 7 80 -3
69 -1 74 21 85 28 12 38 47 31 101 -6 44 2 50 61 50 78 0 337 76 442 130 46
23 59 18 60 -25 0 -11 11 -60 24 -110 20 -74 46 -212 46 -241 0 -3 11 1 25 10
14 9 25 14 25 11 0 -3 -11 -32 -25 -65 -14 -33 -25 -73 -25 -89 0 -16 -7 -66
-16 -111 -8 -45 -13 -85 -10 -88 4 -3 17 5 31 18 40 38 29 10 -22 -55 -64 -81
-105 -206 -106 -325 -2 -81 0 -89 37 -158 25 -46 66 -100 110 -145 78 -79 168
-145 174 -127 2 6 -12 47 -32 90 -48 107 -48 159 5 265 7 14 5 33 -6 64 -21
61 -19 65 16 39 l31 -23 19 24 c21 25 25 56 9 66 -18 11 -10 22 13 18 19 -4
25 4 49 69 59 161 65 205 31 250 -13 18 -29 44 -35 58 -15 35 -27 100 -19 100
4 0 21 -20 39 -45 30 -42 52 -57 52 -35 0 16 -20 113 -32 155 -33 117 -145
307 -254 432 l-54 62 57 44 c63 49 197 185 254 257 101 128 177 290 226 479
20 77 39 138 43 136 5 -3 10 -22 13 -42 3 -21 10 -69 17 -107 7 -38 10 -118 8
-177 l-3 -108 25 6 c14 3 31 10 38 16 6 5 12 6 12 2 0 -16 -42 -76 -68 -96
-29 -23 -51 -72 -86 -199 -37 -131 -39 -140 -21 -140 21 0 19 -17 -6 -43 -65
-69 70 -299 250 -425 71 -50 75 -44 30 55 -45 98 -45 173 0 266 22 46 29 72
23 80 -5 7 -13 23 -16 37 l-7 25 19 -25 c18 -21 22 -22 37 -10 12 10 15 23 12
46 -5 26 -2 31 12 27 19 -5 28 11 60 99 37 103 51 186 51 296 -1 76 -5 112
-15 125 -7 11 -11 25 -8 34 3 8 -7 44 -23 81 -75 178 -210 366 -307 427 l-43
28 -22 117 c-41 214 -94 350 -199 515 -266 415 -762 651 -1253 594z m270 -133
c184 -30 294 -62 400 -116 l43 -22 -39 -17 c-42 -19 -64 -53 -64 -99 0 -16 -5
-33 -11 -39 -9 -9 -7 -11 9 -7 41 11 105 -61 72 -81 -13 -8 -13 -45 -1 -45 6
0 13 20 17 45 5 37 12 49 35 61 42 21 63 58 56 99 -3 19 -2 35 2 35 38 0 294
-247 339 -329 l24 -41 -41 6 c-48 8 -82 -10 -106 -55 -10 -19 -24 -31 -42 -34
l-28 -4 30 -2 c22 -1 36 -11 53 -37 12 -20 22 -40 22 -46 0 -5 7 -7 16 -4 9 3
27 6 41 6 31 0 81 51 85 88 3 24 6 21 34 -33 73 -140 118 -342 117 -515 -1
-165 -49 -383 -110 -505 l-25 -49 -19 37 c-23 44 -45 57 -98 57 -36 0 -41 -3
-58 -40 -10 -22 -24 -40 -30 -40 -14 0 -8 -8 48 -70 25 -28 35 -32 69 -28 l39
3 -22 -39 c-44 -78 -299 -326 -336 -326 -4 0 -6 14 -3 31 6 40 -13 74 -55 100
-21 13 -33 29 -33 42 -1 12 -7 33 -15 47 -14 24 -14 24 -15 3 0 -12 5 -25 10
-28 22 -14 9 -50 -27 -73 l-36 -23 -148 149 c-156 158 -156 158 -127 219 6 11
8 27 5 35 -4 9 -6 8 -6 -4 -1 -10 -10 -32 -21 -50 l-19 -32 -66 68 c-42 42
-65 72 -61 81 4 10 -1 15 -15 15 -12 0 -34 14 -49 32 l-29 32 31 13 c17 7 44
13 60 13 16 0 42 7 58 15 22 11 29 12 33 2 5 -15 84 40 107 74 14 23 13 22
-23 -4 -71 -54 -169 -78 -252 -63 -39 7 -40 7 -15 -9 l25 -15 -30 2 c-21 2
-30 8 -29 20 1 10 -8 20 -20 24 -35 11 -103 71 -133 118 -15 25 -38 49 -50 55
-25 12 -30 43 -10 60 17 13 14 90 -4 120 -15 23 -5 40 26 45 10 1 20 11 21 21
5 33 120 144 150 145 11 0 26 6 32 12 18 18 184 18 189 1 3 -7 16 -13 30 -13
33 0 142 -104 150 -142 5 -28 23 -49 23 -29 0 22 21 10 34 -19 7 -17 15 -27
19 -23 10 9 67 -47 67 -66 0 -8 -12 -28 -27 -43 -33 -35 -26 -36 13 -3 16 14
34 25 40 25 18 0 140 -133 126 -138 -19 -6 -4 -22 21 -22 14 0 68 -46 162
-137 77 -76 124 -120 105 -99 -19 22 -79 83 -132 136 -97 96 -109 114 -85 123
6 3 0 6 -14 6 -19 1 -47 21 -98 73 -72 73 -79 82 -61 93 6 3 10 11 10 18 0 8
-3 8 -12 -1 -19 -19 -31 -15 -70 24 -31 30 -36 40 -31 65 3 17 1 29 -5 29 -6
0 -12 -9 -14 -21 -3 -19 -5 -18 -34 10 -34 33 -51 86 -34 106 8 9 5 14 -12 18
-34 9 -40 -2 -18 -33 20 -28 20 -28 0 -23 -11 3 -25 20 -32 39 -7 20 -19 34
-28 34 -9 0 -29 13 -44 29 -26 27 -27 30 -9 40 16 9 14 10 -12 11 -20 0 -41
12 -67 37 -21 20 -38 40 -38 44 0 9 127 139 134 139 3 0 13 -26 23 -57 12 -42
18 -52 21 -35 2 13 -1 29 -7 36 -5 6 -11 28 -13 48 -2 32 6 43 93 131 153 155
174 181 38 49 -91 -88 -131 -121 -143 -116 -12 5 -16 0 -16 -17 0 -24 -124
-159 -146 -159 -6 0 -43 33 -82 74 -70 72 -71 74 -61 107 16 51 23 85 15 77
-4 -3 -9 -12 -10 -20 -1 -7 -9 -26 -18 -43 l-16 -30 -119 117 c-65 65 -122
121 -128 125 -9 8 192 -208 226 -241 10 -11 19 -31 19 -45 0 -20 3 -22 12 -13
10 10 26 -1 75 -50 35 -34 63 -69 63 -77 0 -8 -14 -30 -32 -48 -24 -25 -41
-33 -67 -34 -33 0 -34 -1 -12 -10 l24 -9 -23 -25 c-13 -14 -31 -27 -41 -30
-10 -3 -27 -21 -38 -40 -21 -35 -45 -45 -54 -22 -3 6 -6 1 -6 -13 -1 -35 -57
-100 -69 -81 -12 17 -26 -3 -18 -24 3 -8 1 -17 -4 -20 -15 -9 -12 -25 4 -19
16 6 26 -24 26 -76 0 -40 -13 -66 -28 -56 -6 4 -8 -7 -5 -31 6 -43 -9 -109
-24 -106 -6 1 -8 -9 -5 -23 4 -23 6 -24 22 -9 10 9 15 25 13 38 -2 12 2 37 10
55 l14 34 31 -38 c18 -21 32 -44 32 -50 0 -7 12 -15 26 -18 16 -4 29 -17 36
-36 5 -17 16 -30 24 -30 7 0 28 -13 46 -29 l33 -30 -25 -11 c-24 -10 -24 -10
6 -6 26 4 37 -1 68 -32 20 -21 36 -46 36 -56 0 -9 5 -14 10 -11 17 11 160
-135 160 -163 0 -18 4 -23 16 -18 11 4 56 -34 155 -134 127 -127 139 -143 139
-176 0 -26 8 -43 29 -65 16 -16 37 -29 45 -29 27 0 18 -16 -21 -34 -107 -51
-288 -102 -392 -111 -52 -4 -60 1 -38 24 8 9 1 8 -20 -3 -36 -18 -95 -21 -123
-6 -16 9 -18 8 -13 -6 6 -15 0 -16 -48 -10 -98 13 -233 48 -319 83 -88 37
-135 63 -111 63 34 0 80 33 89 63 17 56 11 74 -34 102 -34 21 -40 31 -38 53 2
17 1 20 -3 7 -3 -11 -26 -39 -51 -62 -43 -40 -45 -44 -40 -87 4 -32 2 -44 -6
-39 -31 19 -126 92 -164 127 -46 42 -156 172 -184 217 l-17 27 39 -5 c47 -7
82 13 105 57 11 21 23 30 43 31 l27 2 -27 4 c-26 4 -68 48 -68 72 0 14 -75 14
-102 0 -11 -6 -28 -28 -37 -50 l-18 -40 -15 23 c-31 48 -80 197 -102 308 -26
136 -29 163 -16 155 7 -4 5 5 -4 23 -18 36 -20 62 -7 129 6 26 17 91 26 143
16 95 50 207 88 288 l20 43 17 -29 c49 -80 124 -80 165 -1 14 27 14 33 -1 64
-20 43 -28 48 -82 55 l-43 5 31 47 c64 96 205 233 312 302 l26 17 -5 -40 c-6
-47 11 -80 56 -107 18 -11 32 -28 34 -43 4 -23 4 -23 6 5 1 26 8 34 47 53 30
16 42 26 34 31 -7 4 -9 13 -6 19 15 24 -6 71 -42 96 -19 13 -39 22 -44 19 -4
-3 -8 -1 -8 4 0 30 297 125 428 138 37 4 74 11 82 15 8 5 26 7 40 5 14 -3 68
-12 120 -20z m-72 -799 l33 -34 -39 -12 c-31 -11 -47 -11 -76 -1 -20 6 -36 14
-36 17 0 12 56 61 71 62 8 1 30 -14 47 -32z m-98 -67 c0 -9 -53 -21 -60 -13
-3 2 3 11 13 18 19 13 47 10 47 -5z m160 -7 c0 -8 -3 -12 -7 -10 -5 2 -17 7
-28 11 -15 6 -17 9 -6 16 18 11 41 2 41 -17z m1347 -485 c28 -46 72 -139 99
-210 9 -26 18 -89 21 -158 5 -109 4 -120 -25 -206 -17 -50 -46 -124 -65 -165
-71 -154 -80 -188 -75 -299 2 -65 0 -99 -6 -97 -17 6 -24 46 -25 138 -1 97 10
137 83 291 114 242 112 389 -9 630 -30 60 -55 111 -55 113 0 3 7 5 15 5 8 0
27 -19 42 -42z m-2837 3 c0 -5 -27 -63 -61 -129 -119 -236 -113 -386 27 -663
47 -94 67 -176 62 -258 -4 -75 -21 -127 -37 -116 -5 2 -4 26 1 52 9 50 2 160
-12 197 -5 12 -34 77 -64 146 -73 166 -90 233 -90 350 1 136 43 267 126 388
27 39 48 54 48 33z m2226 -1247 c71 -140 89 -217 82 -350 -5 -92 -25 -161 -80
-284 -76 -166 -89 -205 -91 -265 -1 -28 2 -74 6 -102 7 -44 6 -53 -6 -53 -17
0 -27 49 -27 140 0 85 17 146 78 277 71 154 86 211 86 323 -1 116 -17 174 -88
313 -50 96 -59 133 -32 124 6 -2 38 -57 72 -123z m-1576 107 c0 -6 -25 -58
-55 -118 -66 -132 -85 -201 -85 -314 0 -104 19 -172 90 -325 70 -149 83 -198
78 -305 -2 -68 -7 -92 -21 -106 -16 -17 -17 -13 -11 74 8 109 0 144 -68 296
-83 186 -100 247 -101 367 0 141 30 237 129 407 18 31 44 45 44 24z m886 -775
c199 -91 272 -329 160 -520 -35 -59 -136 -146 -170 -146 -15 0 -34 72 -42 161
l-7 71 24 -7 c13 -4 59 -20 102 -36 42 -15 77 -26 77 -25 0 2 -34 31 -75 66
-41 35 -77 69 -79 76 -3 8 29 24 89 45 51 19 91 37 89 41 -3 5 -50 8 -104 8
-113 0 -111 -4 -54 86 39 63 66 114 60 114 -3 0 -36 -27 -73 -61 -37 -33 -75
-64 -84 -69 -17 -10 -17 -11 -50 155 l-12 60 -13 -65 c-7 -36 -13 -75 -13 -87
-1 -12 -6 -34 -11 -48 l-10 -27 -63 54 c-34 29 -68 59 -76 66 -36 34 -17 -12
47 -118 36 -58 33 -60 -78 -60 -55 0 -100 -4 -100 -8 0 -5 43 -24 96 -42 79
-27 100 -31 116 -21 10 6 23 9 28 6 6 -4 10 1 10 9 0 8 -4 18 -10 21 -18 11
-10 26 13 23 17 -2 22 2 22 19 0 31 13 39 30 17 14 -18 16 -18 26 -1 12 21 39
23 39 2 0 -8 -5 -15 -11 -15 -8 0 -8 -4 0 -14 6 -7 22 -11 36 -8 20 3 24 1 19
-12 -3 -9 -10 -16 -15 -16 -5 0 -9 -4 -9 -10 0 -5 6 -10 14 -10 23 0 27 -29 6
-40 -14 -8 -20 -8 -20 0 0 6 -5 8 -11 4 -8 -5 -8 -9 1 -14 6 -4 10 -18 8 -31
-3 -21 -4 -22 -20 -6 -19 19 -84 23 -90 5 -2 -6 -12 -9 -21 -5 -16 6 -16 9 -3
29 15 22 14 23 -22 24 -32 1 -49 -9 -125 -72 -48 -41 -85 -74 -83 -74 3 0 29
9 58 21 82 33 142 49 149 41 4 -4 -1 -50 -11 -102 -10 -52 -17 -97 -14 -99 5
-6 3 -9 60 92 l49 89 20 -26 c11 -14 38 -60 60 -101 45 -86 44 -89 -37 -100
-105 -15 -226 32 -305 118 -66 73 -88 137 -87 253 1 79 5 100 28 148 47 95
139 171 240 197 60 16 168 4 232 -25z m-126 -413 c0 -5 -5 -15 -10 -23 -9 -13
-11 -13 -19 0 -5 8 -7 18 -5 22 6 10 34 11 34 1z"/>
<path d="M2542 4178 c-2 -46 -58 -107 -100 -109 -68 -3 -100 13 -134 64 -11
18 -17 24 -14 14 3 -10 6 -22 6 -26 0 -5 12 -24 28 -43 26 -33 30 -34 98 -35
57 -1 72 3 80 17 5 10 17 32 27 49 12 21 17 46 14 69 l-4 37 -1 -37z"/>
<path d="M2335 4001 c-3 -5 -1 -12 5 -16 5 -3 10 1 10 9 0 18 -6 21 -15 7z"/>
<path d="M2506 3991 c-4 -7 -5 -15 -2 -18 9 -9 19 4 14 18 -4 11 -6 11 -12 0z"/>
<path d="M2322 3945 c0 -16 2 -22 5 -12 2 9 2 23 0 30 -3 6 -5 -1 -5 -18z"/>
<path d="M1901 3874 c0 -11 3 -14 6 -6 3 7 2 16 -1 19 -3 4 -6 -2 -5 -13z"/>
<path d="M2542 3860 c0 -14 2 -19 5 -12 2 6 2 18 0 25 -3 6 -5 1 -5 -13z"/>
<path d="M2550 3806 c0 -14 5 -26 10 -26 6 0 10 9 10 19 0 11 -4 23 -10 26 -6
4 -10 -5 -10 -19z"/>
<path d="M2931 3814 c0 -11 3 -14 6 -6 3 7 2 16 -1 19 -3 4 -6 -2 -5 -13z"/>
<path d="M1910 3798 c0 -15 5 -30 10 -33 6 -3 11 -18 11 -33 1 -16 3 -20 6
-10 2 9 -3 36 -11 60 -13 36 -15 39 -16 16z"/>
<path d="M2912 3745 c0 -16 2 -22 5 -12 2 9 2 23 0 30 -3 6 -5 -1 -5 -18z"/>
<path d="M2891 3690 c0 -29 1 -32 10 -17 7 11 7 23 0 35 -9 14 -10 11 -10 -18z"/>
<path d="M2880 3623 c0 -32 -52 -83 -86 -83 -19 0 -25 -3 -16 -9 7 -4 24 -6
38 -3 19 3 24 0 24 -17 0 -12 4 -20 9 -17 5 3 7 15 4 26 -4 13 0 20 9 20 11 0
17 15 22 47 3 25 4 49 1 51 -3 3 -5 -4 -5 -15z"/>
<path d="M3178 3633 c6 -2 18 -2 25 0 6 3 1 5 -13 5 -14 0 -19 -2 -12 -5z"/>
<path d="M1962 3600 c-3 -33 13 -70 28 -70 15 0 12 26 -5 40 -9 8 -13 21 -9
36 3 13 2 24 -3 24 -5 0 -10 -14 -11 -30z"/>
<path d="M3100 3620 c0 -5 5 -10 11 -10 5 0 7 5 4 10 -3 6 -8 10 -11 10 -2 0
-4 -4 -4 -10z"/>
<path d="M1798 3603 c6 -2 18 -2 25 0 6 3 1 5 -13 5 -14 0 -19 -2 -12 -5z"/>
<path d="M3025 3600 c3 -5 13 -10 21 -10 8 0 14 5 14 10 0 6 -9 10 -21 10 -11
0 -17 -4 -14 -10z"/>
<path d="M2983 3583 c9 -2 23 -2 30 0 6 3 -1 5 -18 5 -16 0 -22 -2 -12 -5z"/>
<path d="M1530 3570 c0 -3 60 -68 133 -144 72 -76 134 -142 135 -147 2 -5 -5
-9 -15 -9 -15 0 -16 -2 -3 -10 8 -5 22 -7 30 -5 16 5 155 -125 155 -145 0 -6
-31 -42 -69 -80 -48 -48 -78 -70 -94 -70 -19 0 -22 -3 -13 -14 9 -10 -10 -35
-91 -117 -162 -165 -174 -187 -22 -38 89 87 150 139 169 144 23 6 26 9 11 13
-15 3 -6 16 50 73 38 38 73 69 78 69 5 0 21 -10 34 -22 26 -23 21 -8 -6 25
-14 15 -13 19 6 40 29 30 28 44 0 17 -12 -11 -27 -20 -34 -20 -14 0 -134 118
-134 132 0 4 5 8 11 8 5 0 7 5 4 10 -3 6 -16 10 -29 10 -15 0 -66 44 -164 143
-78 79 -142 141 -142 137z"/>
<path d="M2221 3544 c0 -11 3 -14 6 -6 3 7 2 16 -1 19 -3 4 -6 -2 -5 -13z"/>
<path d="M2038 3533 c6 -2 18 -2 25 0 6 3 1 5 -13 5 -14 0 -19 -2 -12 -5z"/>
<path d="M2183 3513 c-13 -2 -23 -9 -23 -14 0 -5 6 -8 13 -6 8 1 11 -9 9 -30
-3 -41 2 -41 22 -1 17 33 21 59 9 57 -5 -1 -18 -4 -30 -6z"/>
<path d="M2738 3513 c6 -2 18 -2 25 0 6 3 1 5 -13 5 -14 0 -19 -2 -12 -5z"/>
<path d="M2001 3500 c-2 -32 12 -90 21 -90 6 0 7 10 3 23 -3 12 -10 36 -15 52
-4 17 -8 23 -9 15z"/>
<path d="M2630 3497 c-14 -11 -14 -14 2 -29 17 -17 18 -17 18 2 0 15 7 20 25
20 14 0 25 3 25 8 0 12 -54 11 -70 -1z"/>
<path d="M2815 3410 c-4 -28 -14 -57 -22 -66 -12 -11 -13 -18 -4 -27 17 -17
33 5 36 50 2 21 6 50 10 66 5 16 3 27 -3 27 -6 0 -13 -23 -17 -50z"/>
<path d="M2655 3410 c3 -5 8 -10 11 -10 2 0 4 5 4 10 0 6 -5 10 -11 10 -5 0
-7 -4 -4 -10z"/>
<path d="M2156 3372 c-16 -18 -16 -20 3 -25 12 -3 22 1 26 11 9 25 -10 34 -29
14z"/>
<path d="M2719 3349 c-10 -6 -4 -9 19 -9 17 0 32 2 32 4 0 9 -39 13 -51 5z"/>
<path d="M2030 3336 c0 -8 -6 -16 -12 -19 -7 -2 -3 -2 9 -1 17 3 22 -2 25 -23
3 -27 4 -27 9 5 4 26 2 35 -13 43 -14 7 -18 6 -18 -5z"/>
<path d="M2098 3343 c6 -2 18 -2 25 0 6 3 1 5 -13 5 -14 0 -19 -2 -12 -5z"/>
<path d="M2858 3313 c6 -2 18 -2 25 0 6 3 1 5 -13 5 -14 0 -19 -2 -12 -5z"/>
<path d="M3046 3295 c-10 -8 -23 -12 -27 -9 -5 3 -16 1 -26 -4 -15 -9 -15 -10
3 -20 23 -12 83 -4 63 9 -10 6 -10 10 0 23 16 20 12 20 -13 1z"/>
<path d="M1738 3243 c7 -3 16 -2 19 1 4 3 -2 6 -13 5 -11 0 -14 -3 -6 -6z"/>
<path d="M1658 3223 c7 -3 16 -2 19 1 4 3 -2 6 -13 5 -11 0 -14 -3 -6 -6z"/>
<path d="M1590 3210 c20 -13 33 -13 25 0 -3 6 -14 10 -23 10 -15 0 -15 -2 -2
-10z"/>
<path d="M2952 3204 c-7 -8 -8 -14 -3 -14 10 0 25 19 20 25 -2 1 -10 -3 -17
-11z"/>
<path d="M3369 3194 c-20 -22 -24 -36 -25 -95 -1 -53 2 -69 13 -69 8 0 26 -9
41 -20 15 -11 43 -22 62 -25 l35 -5 -37 11 c-21 6 -51 27 -69 47 -28 32 -31
40 -27 88 3 33 12 62 23 74 27 30 13 24 -16 -6z"/>
<path d="M1558 3193 c7 -3 16 -2 19 1 4 3 -2 6 -13 5 -11 0 -14 -3 -6 -6z"/>
<path d="M2110 3190 c0 -5 5 -10 10 -10 6 0 10 5 10 10 0 6 -4 10 -10 10 -5 0
-10 -4 -10 -10z"/>
<path d="M2725 3115 c0 -74 6 -91 20 -57 15 37 14 87 -3 110 -17 22 -18 21
-17 -53z"/>
<path d="M1477 3160 c3 -11 7 -20 9 -20 2 0 4 9 4 20 0 11 -4 20 -9 20 -5 0
-7 -9 -4 -20z"/>
<path d="M1481 3087 c-2 -30 -38 -73 -71 -87 -17 -7 -48 -10 -72 -7 -27 4 -37
2 -27 -4 7 -5 35 -9 60 -9 36 0 54 6 84 30 21 17 43 30 49 30 8 0 8 2 0 8 -7
4 -14 18 -17 32 -3 16 -5 18 -6 7z"/>
<path d="M2760 3044 c0 -11 -7 -29 -15 -40 -13 -16 -16 -17 -25 -4 -8 13 -10
13 -10 -1 0 -9 -11 -33 -25 -53 -30 -44 -30 -45 -5 -43 12 1 20 8 20 18 0 10
15 32 33 50 l32 32 5 -29 c4 -21 7 -24 12 -13 3 9 2 22 -2 30 -5 7 -5 18 0 24
5 6 2 18 -6 29 -14 20 -14 20 -14 0z"/>
<path d="M2110 3029 c0 -5 5 -7 10 -4 6 3 10 8 10 11 0 2 -4 4 -10 4 -5 0 -10
-5 -10 -11z"/>
<path d="M3228 3003 c6 -2 18 -2 25 0 6 3 1 5 -13 5 -14 0 -19 -2 -12 -5z"/>
<path d="M3088 2973 c7 -3 16 -2 19 1 4 3 -2 6 -13 5 -11 0 -14 -3 -6 -6z"/>
<path d="M2786 2905 c-4 -11 -1 -22 6 -27 29 -18 37 -4 15 26 -13 18 -14 18
-21 1z"/>
<path d="M1988 2903 c7 -3 16 -2 19 1 4 3 -2 6 -13 5 -11 0 -14 -3 -6 -6z"/>
<path d="M2843 2903 c9 -2 23 -2 30 0 6 3 -1 5 -18 5 -16 0 -22 -2 -12 -5z"/>
<path d="M2153 2877 c3 -8 2 -17 -4 -19 -5 -2 -1 -8 10 -15 15 -9 21 -9 29 0
7 8 2 18 -16 31 -21 16 -24 17 -19 3z"/>
<path d="M2657 2865 c-18 -25 -18 -25 8 -25 20 0 25 5 25 25 0 31 -10 31 -33
0z"/>
<path d="M2720 2870 c8 -5 20 -10 25 -10 6 0 3 5 -5 10 -8 5 -19 10 -25 10 -5
0 -3 -5 5 -10z"/>
<path d="M2814 2811 c14 -47 26 -63 26 -33 0 11 -4 24 -10 27 -5 3 -10 15 -10
26 0 10 -4 19 -9 19 -5 0 -4 -18 3 -39z"/>
<path d="M2017 2803 c-3 -4 -8 -26 -12 -48 -4 -22 -15 -52 -26 -67 -20 -29
-26 -98 -8 -98 7 0 9 9 6 23 -8 29 22 64 59 70 29 4 29 4 -4 6 -30 1 -32 3
-26 29 3 15 10 40 16 55 10 26 6 48 -5 30z"/>
<path d="M2183 2767 c4 -28 2 -39 -11 -47 -16 -9 -16 -9 0 -10 9 0 23 -3 32
-6 11 -4 16 -1 16 10 0 9 8 16 18 17 11 0 7 4 -10 11 -17 6 -28 17 -28 28 0
10 -5 22 -12 26 -8 5 -9 -3 -5 -29z"/>
<path d="M2481 2771 c-11 -7 -11 -9 0 -13 11 -4 8 -12 -10 -32 -33 -35 -21
-33 19 4 18 17 36 30 41 30 5 0 9 5 9 10 0 12 -40 13 -59 1z"/>
<path d="M2624 2745 c-30 -15 -9 -30 46 -32 44 -2 44 -1 17 11 -16 7 -32 17
-35 22 -5 7 -15 6 -28 -1z"/>
<path d="M2841 2718 c-1 -23 -6 -28 -28 -29 -28 -1 -28 -1 4 -10 27 -8 34 -17
44 -52 18 -68 22 -75 27 -49 2 13 -1 29 -7 36 -13 15 -4 46 13 46 6 0 0 6 -14
13 -15 7 -28 25 -31 42 l-7 30 -1 -27z"/>
<path d="M2085 2700 c3 -5 10 -10 16 -10 5 0 9 5 9 10 0 6 -7 10 -16 10 -8 0
-12 -4 -9 -10z"/>
<path d="M2722 2704 c10 -9 58 -12 52 -3 -3 5 -17 9 -31 9 -15 0 -24 -3 -21
-6z"/>
<path d="M2222 2670 c0 -14 2 -19 5 -12 2 6 2 18 0 25 -3 6 -5 1 -5 -13z"/>
<path d="M1900 2650 c0 -6 7 -10 15 -10 8 0 15 2 15 4 0 2 -7 6 -15 10 -8 3
-15 1 -15 -4z"/>
<path d="M2920 2649 c0 -5 4 -8 8 -5 9 5 77 -16 88 -27 4 -4 21 -7 37 -7 33 0
33 7 1 13 -10 2 -26 7 -34 10 -74 27 -100 32 -100 16z"/>
<path d="M1815 2631 c-6 -5 -19 -11 -30 -14 -15 -4 -14 -5 7 -6 15 0 29 3 33
9 3 5 12 7 19 4 8 -3 17 -1 21 5 8 13 -37 15 -50 2z"/>
<path d="M2232 2595 c0 -16 2 -22 5 -12 2 9 2 23 0 30 -3 6 -5 -1 -5 -18z"/>
<path d="M1728 2593 c7 -3 16 -2 19 1 4 3 -2 6 -13 5 -11 0 -14 -3 -6 -6z"/>
<path d="M2313 2566 c-21 -18 -44 -31 -50 -29 -8 3 -13 -3 -13 -14 0 -10 -7
-29 -16 -42 -16 -22 -16 -23 5 -12 19 11 22 8 33 -34 7 -25 16 -45 20 -45 11
0 10 24 -1 36 -4 5 -11 24 -15 42 -5 29 -1 39 41 83 53 56 51 65 -4 15z"/>
<path d="M1640 2580 c20 -13 40 -13 40 0 0 6 -12 10 -27 10 -22 0 -25 -2 -13
-10z"/>
<path d="M3178 2583 c6 -2 18 -2 25 0 6 3 1 5 -13 5 -14 0 -19 -2 -12 -5z"/>
<path d="M1952 2540 c0 -14 2 -19 5 -12 2 6 2 18 0 25 -3 6 -5 1 -5 -13z"/>
<path d="M2890 2533 c0 -13 5 -23 10 -23 13 0 13 11 0 30 -8 12 -10 11 -10 -7z"/>
<path d="M1930 2486 c0 -14 -4 -28 -10 -31 -5 -3 -10 -18 -10 -33 0 -16 4 -22
9 -16 13 13 30 104 20 104 -5 0 -9 -11 -9 -24z"/>
<path d="M2912 2470 c0 -19 2 -27 5 -17 2 9 2 25 0 35 -3 9 -5 1 -5 -18z"/>
<path d="M2558 2434 c-5 -4 -8 -16 -8 -28 0 -14 3 -17 11 -9 6 6 9 19 7 28 -1
9 -6 13 -10 9z"/>
<path d="M2927 2405 c-4 -8 -2 -17 3 -20 6 -4 10 3 10 14 0 25 -6 27 -13 6z"/>
<path d="M2542 2355 c0 -16 2 -22 5 -12 2 9 2 23 0 30 -3 6 -5 -1 -5 -18z"/>
<path d="M1902 2340 c0 -14 2 -19 5 -12 2 6 2 18 0 25 -3 6 -5 1 -5 -13z"/>
<path d="M2301 2324 c0 -11 3 -14 6 -6 3 7 2 16 -1 19 -3 4 -6 -2 -5 -13z"/>
<path d="M2522 2290 c0 -14 2 -19 5 -12 2 6 2 18 0 25 -3 6 -5 1 -5 -13z"/>
<path d="M2315 2273 c4 -10 11 -31 15 -48 6 -25 8 -27 15 -12 4 11 3 23 -4 30
-6 6 -11 19 -11 29 0 10 -5 18 -11 18 -7 0 -8 -7 -4 -17z"/>
<path d="M2507 2240 c-3 -11 -1 -23 4 -26 5 -3 9 6 9 20 0 31 -6 34 -13 6z"/>
</g>
</svg>
